nColumns=19
nRows=146
DataType=double
version=3
OpenSimVersion=4.1
endheader
time	ground_force_calcn_r_vx	ground_force_calcn_r_vy	ground_force_calcn_r_vz	ground_force_calcn_r_px	ground_force_calcn_r_py	ground_force_calcn_r_pz	ground_force_calcn_r_mx	ground_force_calcn_r_my	ground_force_calcn_r_mz	ground_force_calcn_l_vx	ground_force_calcn_l_vy	ground_force_calcn_l_vz	ground_force_calcn_l_px	ground_force_calcn_l_py	ground_force_calcn_l_pz	ground_force_calcn_l_mx	ground_force_calcn_l_my	ground_force_calcn_l_mz
2.925	0	0	0	0	0	0	0	0	0	-88.6316	118.173	-17.6607	1.09649	0	-0.391088	0.356018	-0.474681	0.0709398
2.93	0	0	0	0	0	0	0	0	0	-192.374	357.979	22.6109	0.92847	0	-0.433091	-1.16515	2.16817	0.136947
2.935	0	0	0	0	0	0	0	0	0	-312.149	720.564	92.1662	0.936479	0	-0.408191	-2.49074	5.74961	0.735423
2.94	0	0	0	0	0	0	0	0	0	-401.839	1172.48	193.994	0.939155	0	-0.386808	-2.82794	8.2513	1.36523
2.945	0	0	0	0	0	0	0	0	0	-425.829	1673.86	299.003	0.939682	0	-0.367566	-0.60372	2.37312	0.423912
2.95	0	0	0	0	0	0	0	0	0	-408.782	2205.87	354.496	0.93179	0	-0.351729	4.18362	-22.5757	-3.62805
2.955	0	0	0	0	0	0	0	0	0	-401.289	2717.04	315.096	0.913799	0	-0.340189	8.66149	-58.6452	-6.8011
2.96	0	0	0	0	0	0	0	0	0	-399.806	3114.15	163.871	0.896833	0	-0.333449	10.094	-78.6234	-4.13728
2.965	0	0	0	0	0	0	0	0	0	-399.248	3334.83	-63.3214	0.882999	0	-0.330969	7.85538	-65.6143	1.24588
2.97	0	0	0	0	0	0	0	0	0	-404.139	3385.08	-288.419	0.865882	0	-0.331855	2.84196	-23.8043	2.0282
2.975	0	0	0	0	0	0	0	0	0	-382.628	3319.87	-427.806	0.843679	0	-0.334117	-2.5276	21.9307	-2.82604
2.98	0	0	0	0	0	0	0	0	0	-311.768	3206.39	-437.421	0.814395	0	-0.334761	-4.419	45.4473	-6.20001
2.985	0	0	0	0	0	0	0	0	0	-197.016	3082.66	-340.835	0.777069	0	-0.332757	-2.41347	37.7629	-4.17526
2.99	0	0	0	0	0	0	0	0	0	-51.9421	2953.38	-208.023	0.737946	0	-0.329862	-0.140237	7.97373	-0.561634
2.995	0	0	0	0	0	0	0	0	0	103.833	2803.78	-100.963	0.701094	0	-0.328404	-0.812034	-21.9271	0.789587
3	0	0	0	0	0	0	0	0	0	250.616	2613.01	-44.3799	0.665321	0	-0.328692	-3.37903	-35.231	0.59837
3.005	0	0	0	0	0	0	0	0	0	381.759	2366.51	-26.9785	0.628605	0	-0.329946	-5.48761	-34.0175	0.387803
3.01	0	0	0	0	0	0	0	0	0	493.96	2062.08	-22.4226	0.584401	0	-0.331597	-6.34298	-26.4794	0.287931
3.015	0	0	0	0	0	0	0	0	0	577.823	1705.08	-12.0873	0.521714	0	-0.334385	-6.59491	-19.4608	0.137957
3.02	0	0	0	0	0	0	0	0	0	625.684	1313.05	7.41212	0.432408	0	-0.341133	-9.41666	-19.7616	-0.111554
3.025	0	0	0	0	0	0	0	0	0	617.694	921.368	22.8165	0.308863	0	-0.356535	-15.8225	-23.6012	-0.584454
3.03	0	0	0	0	0	0	0	0	0	541.079	566.389	13.6339	0.141335	0	-0.376372	-16.2577	-17.0182	-0.409656
3.035	0	0	0	0	0	0	0	0	0	418.759	282.849	-29.2591	-0.0531427	0	-0.345805	4.58775	3.09878	-0.32055
3.04	0	0	0	0	0	0	0	0	0	284.751	94.5497	-88.1667	0.262302	0	-0.0731624	25.8721	8.59067	-8.01072
3.045	0	0	0	0	0	0	0	0	0	0	0	0	0	0	0	0	0	0
3.05	0	0	0	0	0	0	0	0	0	0	0	0	0	0	0	0	0	0
3.055	0	0	0	0	0	0	0	0	0	0	0	0	0	0	0	0	0	0
3.06	0	0	0	0	0	0	0	0	0	0	0	0	0	0	0	0	0	0
3.065	0	0	0	0	0	0	0	0	0	0	0	0	0	0	0	0	0	0
3.07	0	0	0	0	0	0	0	0	0	0	0	0	0	0	0	0	0	0
3.075	0	0	0	0	0	0	0	0	0	0	0	0	0	0	0	0	0	0
3.08	0	0	0	0	0	0	0	0	0	0	0	0	0	0	0	0	0	0
3.085	0	0	0	0	0	0	0	0	0	0	0	0	0	0	0	0	0	0
3.09	0	0	0	0	0	0	0	0	0	0	0	0	0	0	0	0	0	0
3.095	0	0	0	0	0	0	0	0	0	0	0	0	0	0	0	0	0	0
3.1	0	0	0	0	0	0	0	0	0	0	0	0	0	0	0	0	0	0
3.105	0	0	0	0	0	0	0	0	0	0	0	0	0	0	0	0	0	0
3.11	0	0	0	0	0	0	0	0	0	0	0	0	0	0	0	0	0	0
3.115	0	0	0	0	0	0	0	0	0	0	0	0	0	0	0	0	0	0
3.12	0	0	0	0	0	0	0	0	0	0	0	0	0	0	0	0	0	0
3.125	0	0	0	0	0	0	0	0	0	0	0	0	0	0	0	0	0	0
3.13	0	0	0	0	0	0	0	0	0	0	0	0	0	0	0	0	0	0
3.135	0	0	0	0	0	0	0	0	0	0	0	0	0	0	0	0	0	0
3.14	0	0	0	0	0	0	0	0	0	0	0	0	0	0	0	0	0	0
3.145	0	0	0	0	0	0	0	0	0	0	0	0	0	0	0	0	0	0
3.15	0	0	0	0	0	0	0	0	0	0	0	0	0	0	0	0	0	0
3.155	0	0	0	0	0	0	0	0	0	0	0	0	0	0	0	0	0	0
3.16	0	0	0	0	0	0	0	0	0	0	0	0	0	0	0	0	0	0
3.165	0	0	0	0	0	0	0	0	0	0	0	0	0	0	0	0	0	0
3.17	-83.2629	89.9298	37.1578	1.12746	0	-0.1909	-0.20636	0.222883	0.0920925	0	0	0	0	0	0	0	0	0
3.175	-166.045	299.48	13.7389	0.952947	0	-0.162113	0.950749	-1.71477	-0.0786668	0	0	0	0	0	0	0	0	0
3.18	-271.472	624.624	-43.2964	0.950221	0	-0.180855	2.3797	-5.4754	0.379533	0	0	0	0	0	0	0	0	0
3.185	-361.649	1043.61	-139.42	0.947135	0	-0.194622	4.27251	-12.3292	1.6471	0	0	0	0	0	0	0	0	0
3.19	-396.084	1527.94	-255.495	0.943456	0	-0.208509	3.43282	-13.2425	2.21434	0	0	0	0	0	0	0	0	0
3.195	-383.832	2055.17	-348.821	0.935924	0	-0.221618	-1.50763	8.0724	-1.37012	0	0	0	0	0	0	0	0	0
3.2	-375.173	2572.59	-373.796	0.923556	0	-0.230985	-6.86123	47.0481	-6.83606	0	0	0	0	0	0	0	0	0
3.205	-397.895	2994.7	-307.549	0.910318	0	-0.23564	-10.0583	75.7025	-7.77447	0	0	0	0	0	0	0	0	0
3.21	-441.815	3262.12	-165.219	0.896373	0	-0.236193	-10.1204	74.7237	-3.78459	0	0	0	0	0	0	0	0	0
3.215	-470.271	3381.8	8.34084	0.879128	0	-0.233686	-5.69338	40.942	0.100979	0	0	0	0	0	0	0	0	0
3.22	-453.027	3391.28	155.185	0.855235	0	-0.229971	1.20041	-8.98604	-0.411202	0	0	0	0	0	0	0	0	0
3.225	-382.49	3325.97	220.123	0.822259	0	-0.227856	4.99764	-43.4573	-2.87615	0	0	0	0	0	0	0	0	0
3.23	-262.521	3223.63	186.775	0.782842	0	-0.228657	3.74728	-46.0147	-2.66607	0	0	0	0	0	0	0	0	0
3.235	-114.726	3118.49	91.0018	0.743217	0	-0.231386	0.873532	-23.7444	-0.692893	0	0	0	0	0	0	0	0	0
3.24	37.0469	3004.73	-7.48572	0.707675	0	-0.233512	0.0961795	7.80074	-0.0194341	0	0	0	0	0	0	0	0	0
3.245	177.559	2852.6	-69.3239	0.67607	0	-0.233898	1.98323	31.862	-0.774308	0	0	0	0	0	0	0	0	0
3.25	299.786	2647.46	-90.9425	0.645654	0	-0.233191	4.52687	39.9775	-1.37326	0	0	0	0	0	0	0	0	0
3.255	409.746	2384.2	-90.3021	0.612764	0	-0.232011	6.77986	39.4502	-1.49418	0	0	0	0	0	0	0	0	0
3.26	508.469	2057.33	-83.5559	0.570803	0	-0.229925	9.6557	39.0681	-1.58671	0	0	0	0	0	0	0	0	0
3.265	580.691	1669.52	-75.6395	0.5099	0	-0.226172	14.05	40.3944	-1.83012	0	0	0	0	0	0	0	0	0
3.27	605.201	1241.49	-56.6273	0.416711	0	-0.21903	18.956	38.8856	-1.77367	0	0	0	0	0	0	0	0	0
3.275	574.828	821.174	-17.4982	0.274263	0	-0.211171	17.7923	25.4173	-0.541611	0	0	0	0	0	0	0	0	0
3.28	496.666	471.098	42.4911	0.0737346	0	-0.239664	-5.23475	-4.96526	-0.447846	0	0	0	0	0	0	0	0	0
3.285	383.301	228.443	108.72	-0.134525	0	-0.417579	-46.1694	-27.5165	-13.0956	0	0	0	0	0	0	0	0	0
3.29	255.713	79.2833	151.239	0.605241	0	-0.886124	-53.1059	-16.4654	-31.4089	0	0	0	0	0	0	0	0	0
3.295	0	0	0	0	0	0	0	0	0	0	0	0	0	0	0	0	0	0
3.3	0	0	0	0	0	0	0	0	0	0	0	0	0	0	0	0	0	0
3.305	0	0	0	0	0	0	0	0	0	0	0	0	0	0	0	0	0	0
3.31	0	0	0	0	0	0	0	0	0	0	0	0	0	0	0	0	0	0
3.315	0	0	0	0	0	0	0	0	0	0	0	0	0	0	0	0	0	0
3.32	0	0	0	0	0	0	0	0	0	0	0	0	0	0	0	0	0	0
3.325	0	0	0	0	0	0	0	0	0	0	0	0	0	0	0	0	0	0
3.33	0	0	0	0	0	0	0	0	0	0	0	0	0	0	0	0	0	0
3.335	0	0	0	0	0	0	0	0	0	0	0	0	0	0	0	0	0	0
3.34	0	0	0	0	0	0	0	0	0	0	0	0	0	0	0	0	0	0
3.345	0	0	0	0	0	0	0	0	0	0	0	0	0	0	0	0	0	0
3.35	0	0	0	0	0	0	0	0	0	0	0	0	0	0	0	0	0	0
3.355	0	0	0	0	0	0	0	0	0	0	0	0	0	0	0	0	0	0
3.36	0	0	0	0	0	0	0	0	0	0	0	0	0	0	0	0	0	0
3.365	0	0	0	0	0	0	0	0	0	0	0	0	0	0	0	0	0	0
3.37	0	0	0	0	0	0	0	0	0	0	0	0	0	0	0	0	0	0
3.375	0	0	0	0	0	0	0	0	0	0	0	0	0	0	0	0	0	0
3.38	0	0	0	0	0	0	0	0	0	0	0	0	0	0	0	0	0	0
3.385	0	0	0	0	0	0	0	0	0	0	0	0	0	0	0	0	0	0
3.39	0	0	0	0	0	0	0	0	0	0	0	0	0	0	0	0	0	0
3.395	0	0	0	0	0	0	0	0	0	0	0	0	0	0	0	0	0	0
3.4	0	0	0	0	0	0	0	0	0	0	0	0	0	0	0	0	0	0
3.405	0	0	0	0	0	0	0	0	0	0	0	0	0	0	0	0	0	0
3.41	0	0	0	0	0	0	0	0	0	0	0	0	0	0	0	0	0	0
3.415	0	0	0	0	0	0	0	0	0	0	0	0	0	0	0	0	0	0
3.42	0	0	0	0	0	0	0	0	0	-63.758	129.479	-28.5943	1.08442	0	-0.422549	-0.570612	1.15879	-0.255909
3.425	0	0	0	0	0	0	0	0	0	-147.395	350.235	8.99295	0.95166	0	-0.448221	-1.32029	3.13722	0.0805541
3.43	0	0	0	0	0	0	0	0	0	-251.067	671.428	77.0947	0.961739	0	-0.427132	-3.06719	8.20257	0.941835
3.435	0	0	0	0	0	0	0	0	0	-334.528	1057.91	174.179	0.963697	0	-0.407765	-4.37101	13.8229	2.27587
3.44	0	0	0	0	0	0	0	0	0	-365.66	1476.06	271.613	0.963096	0	-0.388658	-2.50385	10.1072	1.85986
3.445	0	0	0	0	0	0	0	0	0	-364.691	1916.11	323.463	0.954146	0	-0.371769	2.88383	-15.1518	-2.55781
3.45	0	0	0	0	0	0	0	0	0	-370.579	2347.42	291.295	0.934142	0	-0.359241	8.25995	-52.3225	-6.49278
3.455	0	0	0	0	0	0	0	0	0	-371.897	2706.42	161.741	0.913071	0	-0.352299	9.96619	-72.5274	-4.33438
3.46	0	0	0	0	0	0	0	0	0	-356.092	2948.45	-32.8025	0.893769	0	-0.349983	7.2477	-60.011	0.667643
3.465	0	0	0	0	0	0	0	0	0	-328.26	3066.44	-227.475	0.871077	0	-0.35053	2.33455	-21.8082	1.61778
3.47	0	0	0	0	0	0	0	0	0	-280.396	3078.69	-355.572	0.842007	0	-0.351769	-1.59739	17.539	-2.02566
3.475	0	0	0	0	0	0	0	0	0	-207.824	3026.84	-382.302	0.805851	0	-0.351611	-2.26804	33.0328	-4.17217
3.48	0	0	0	0	0	0	0	0	0	-114.619	2949.02	-322.23	0.765688	0	-0.349411	-0.746021	19.1943	-2.0973
3.485	0	0	0	0	0	0	0	0	0	-7.20837	2857.94	-231.269	0.728338	0	-0.346795	0.0188602	-7.4776	0.605098
3.49	0	0	0	0	0	0	0	0	0	106.568	2741.58	-161.477	0.695407	0	-0.345423	-0.996252	-25.6298	1.50958
3.495	0	0	0	0	0	0	0	0	0	218.275	2585.91	-130.901	0.66441	0	-0.345359	-2.21214	-26.2072	1.32663
3.5	0	0	0	0	0	0	0	0	0	326.549	2382.8	-122.093	0.634326	0	-0.345456	-2.1993	-16.0481	0.822294
3.505	0	0	0	0	0	0	0	0	0	426.738	2126.48	-108.158	0.601243	0	-0.345427	-1.40764	-7.01443	0.35677
3.51	0	0	0	0	0	0	0	0	0	502.844	1806.49	-75.9307	0.554587	0	-0.346859	-1.79922	-6.46376	0.271687
3.515	0	0	0	0	0	0	0	0	0	546.051	1422.24	-31.8587	0.480841	0	-0.353414	-6.0542	-15.7687	0.353225
3.52	0	0	0	0	0	0	0	0	0	549.561	1008.94	5.47851	0.3649	0	-0.371591	-15.6422	-28.7175	-0.155935
3.525	0	0	0	0	0	0	0	0	0	507.961	624.814	15.2303	0.196347	0	-0.40365	-22.6567	-27.8687	-0.679323
3.53	0	0	0	0	0	0	0	0	0	425.665	319.791	-14.7324	-0.0136067	0	-0.402002	-5.28207	-3.96828	0.182814
3.535	0	0	0	0	0	0	0	0	0	313.961	117.499	-69.174	0.15101	0	-0.172716	23.8403	8.92213	-5.25265
3.54	0	0	0	0	0	0	0	0	0	0	0	0	0	0	0	0	0	0
3.545	0	0	0	0	0	0	0	0	0	0	0	0	0	0	0	0	0	0
3.55	0	0	0	0	0	0	0	0	0	0	0	0	0	0	0	0	0	0
3.555	0	0	0	0	0	0	0	0	0	0	0	0	0	0	0	0	0	0
3.56	0	0	0	0	0	0	0	0	0	0	0	0	0	0	0	0	0	0
3.565	0	0	0	0	0	0	0	0	0	0	0	0	0	0	0	0	0	0
3.57	0	0	0	0	0	0	0	0	0	0	0	0	0	0	0	0	0	0
3.575	0	0	0	0	0	0	0	0	0	0	0	0	0	0	0	0	0	0
3.58	0	0	0	0	0	0	0	0	0	0	0	0	0	0	0	0	0	0
3.585	0	0	0	0	0	0	0	0	0	0	0	0	0	0	0	0	0	0
3.59	0	0	0	0	0	0	0	0	0	0	0	0	0	0	0	0	0	0
3.595	0	0	0	0	0	0	0	0	0	0	0	0	0	0	0	0	0	0
3.6	0	0	0	0	0	0	0	0	0	0	0	0	0	0	0	0	0	0
3.605	0	0	0	0	0	0	0	0	0	0	0	0	0	0	0	0	0	0
3.61	0	0	0	0	0	0	0	0	0	0	0	0	0	0	0	0	0	0
3.615	0	0	0	0	0	0	0	0	0	0	0	0	0	0	0	0	0	0
3.62	0	0	0	0	0	0	0	0	0	0	0	0	0	0	0	0	0	0
3.625	0	0	0	0	0	0	0	0	0	0	0	0	0	0	0	0	0	0
3.63	0	0	0	0	0	0	0	0	0	0	0	0	0	0	0	0	0	0
3.635	0	0	0	0	0	0	0	0	0	0	0	0	0	0	0	0	0	0
3.64	0	0	0	0	0	0	0	0	0	0	0	0	0	0	0	0	0	0
3.645	0	0	0	0	0	0	0	0	0	0	0	0	0	0	0	0	0	0
3.65	0	0	0	0	0	0	0	0	0	0	0	0	0	0	0	0	0	0
